<?xml version="1.0" encoding="UTF-8"?>
<!-- Created with Inkscape (http://www.inkscape.org/) -->
<svg width="180" height="180" version="1.1" viewBox="0 0 180 180" xml:space="preserve" xmlns="http://www.w3.org/2000/svg"><path d="m28.6 1.17v6.81c0 6-0.0439 12.8 1.47 19.4 2.59 11.3 9.54 16.9 17.8 20-40.7 11.2-34.5 66.4-21.4 94.3 6.86 14.5 21.2 34 40.5 36.3 8.86 1.04 16.1-2.29 22.7-2.29 7.29 0 15.5 3.99 25.3 1.86 12.8-2.78 23.8-13.3 30.4-23.1 16.1-23.9 28.7-68.6 5.71-94.4-8.31-9.35-19.8-14.1-31.8-14.5-3.95-0.126-7.95 0.234-11.9 1.07-3.41 0.723-6.41 1.96-9.2 3.06 0.278-0.854 0.782-2.21 1-2.59 1.3-2.26 9.69-4.8 11.7-11.5 1.74-5.82-1.39-10.7-7.21-11-4.27-0.186-9.56 2.36-11.8 4.33-0.448 0.387-0.823 0.822-1.24 1.23-0.256-1.31-0.515-2.62-0.912-3.91-7.91-25.7-38.8-22.4-54.3-24.2z" fill="#d3ffab"/><path d="m34.6 7.98c0 6.02-0.0424 12.1 1.32 18 5.39 23.4 32.8 16.8 49.7 20 0-6.01 0.043-12.2-1.74-18-6.5-21.1-32.3-18-49.3-20m53 46c4.4-1.29 4.2-6.34 6.31-10 2.34-4.05 9.96-6.26 11.1-10.2 1.84-6.16-7.57-1.84-9.3-0.347-5.88 5.08-8.11 13.1-8.14 20.5m-36-1.53c-38.1 8.29-32.1 60.3-19.7 86.5 6.5 13.8 19.3 30.9 35.7 32.9 7.84 0.922 14.5-2.33 22-2.33 8.23 0 15.4 3.87 24 2 11-2.39 20.6-11.5 26.7-20.5 15.2-22.5 26.6-64.1 6.2-87-9.47-10.7-24-14.5-37.9-11.5-6.54 1.39-13.2 5.82-20 5.38-12.9-0.852-23.2-8.38-37-5.38m6 4.79c10.9-1.46 19.6 5.32 30 5.72 20.2 0.786 37.8-14.8 54.8 5.02 5.98 6.92 7.42 15.3 8.29 24 2.64 26.4-11.5 70.5-42.1 74.7-6.33 0.876-11.8-2.49-18-2.72-6.22-0.231-11.8 3.09-18 2.9-16.2-0.481-28.1-15.7-34.8-28.9-12.7-25.4-18.9-75.6 19.8-80.7m30 21.2c-12.1 1.78-22 17.3-16.5 29.3 1.15 2.52 4.37 2.08 6.3 3.7 6.17 5.16 9.19 8.9 19.1 6.3 3.25-0.846 2.99-4.37 5.3-6.3 1.93-1.62 5.15-1.18 6.31-3.7 5.95-13-6.2-31.4-20.5-29.3m-6.94 15.9c5.85-1.25 8.86 7.21 2.87 9.13-6.03 1.94-9.4-7.74-2.87-9.13m15 0.129c6.24-2.14 9.2 7.04 2.91 9.01-5.86 1.83-8.82-6.98-2.91-9.01m-6.06 10.5 2 6h-4l2-6m-29 18 21 4v2l-15.3 4.08 2.31 8.92c7.16 3.58 11.4-8.22 20-9.3 3.83-0.481 9.98 2.32 12.8 4.86 1.84 1.67 2.28 5.98 5.28 5.88 3.3-0.119 7.8-9.54 5.44-11.9-1.66-1.68-11.5-1.72-14.5-2.5v-2c4.45-1.19 8.51-3.99 13-4.94 2.36-0.499 5.55 1.14 7.52-0.597 2.68-2.37-1.69-12.7-5.46-11.8-2.7 0.636-3.38 4.12-5.27 5.8-3.66 3.25-13.8 8.54-18.8 7.85-4.92-0.689-13.1-4.56-16.8-7.85-2.1-1.86-3.29-6.93-7-5.72-3.88 1.26-4.98 10.1-4.21 13.3z" fill="#4a0"/></svg>
